<svg width="44" height="29" viewBox="0 0 44 29" fill="none" xmlns="http://www.w3.org/2000/svg">
<path d="M43.1398 29H0.625455C0.459639 29 0.300614 28.9342 0.183364 28.8169C0.0661144 28.6997 0.000244141 28.5406 0.000244141 28.3748V0.64047C0.000244141 0.474653 0.0661144 0.315629 0.183364 0.198379C0.300614 0.0811292 0.459639 0.0152588 0.625455 0.0152588H43.1398C43.3056 0.0152588 43.4646 0.0811292 43.5819 0.198379C43.6991 0.315629 43.765 0.474653 43.765 0.64047V28.3748C43.765 28.5406 43.6991 28.6997 43.5819 28.8169C43.4646 28.9342 43.3056 29 43.1398 29ZM1.25067 27.7496H42.5146V1.26568H1.25067V27.7496Z" fill="black"/>
<path d="M21.8826 18.0757C19.5775 18.08 17.3579 17.2032 15.678 15.6249L0.19715 1.0812C0.137296 1.02496 0.0891061 0.957477 0.0553311 0.882612C0.021556 0.807747 0.00285739 0.726963 0.00030292 0.644871C-0.00485607 0.47908 0.0560565 0.31803 0.169641 0.19715C0.283225 0.0762699 0.440176 0.00546191 0.605968 0.000302919C0.771759 -0.00485607 0.932809 0.0560567 1.05369 0.169641L16.5339 14.7133C17.9841 16.0709 19.8962 16.8262 21.8826 16.8262C23.869 16.8262 25.7811 16.0709 27.2313 14.7133L42.7115 0.169641C42.8324 0.0560567 42.9934 -0.00485607 43.1592 0.000302919C43.325 0.00546191 43.482 0.0762699 43.5955 0.19715C43.7091 0.31803 43.77 0.47908 43.7649 0.644871C43.7597 0.810662 43.6889 0.967614 43.568 1.0812L28.0872 15.6255C26.4072 17.2036 24.1876 18.0801 21.8826 18.0757Z" fill="black"/>
<path d="M0.625555 28.9968C0.497058 28.9968 0.371659 28.9573 0.266426 28.8836C0.161193 28.8098 0.0812362 28.7055 0.0374383 28.5846C-0.00635957 28.4638 -0.0118715 28.3325 0.0216527 28.2084C0.0551769 28.0844 0.126109 27.9737 0.224795 27.8914L15.8594 14.8332C15.9224 14.7798 15.9952 14.7394 16.0738 14.7143C16.1524 14.6892 16.2352 14.6799 16.3175 14.687C16.3997 14.694 16.4797 14.7173 16.5529 14.7554C16.6261 14.7936 16.691 14.8458 16.7439 14.9091C16.7968 14.9725 16.8366 15.0456 16.8611 15.1245C16.8856 15.2033 16.8942 15.2861 16.8865 15.3683C16.8788 15.4505 16.8549 15.5303 16.8162 15.6032C16.7775 15.676 16.7247 15.7405 16.661 15.7929L1.02632 28.8511C0.913927 28.9451 0.772085 28.9967 0.625555 28.9968Z" fill="black"/>
<path d="M43.1399 28.9968C42.9934 28.9967 42.8515 28.9451 42.7391 28.8511L27.1045 15.7929C27.0407 15.7405 26.988 15.676 26.9493 15.6032C26.9106 15.5303 26.8867 15.4505 26.879 15.3683C26.8712 15.2861 26.8799 15.2033 26.9044 15.1245C26.9288 15.0456 26.9687 14.9725 27.0216 14.9091C27.0745 14.8458 27.1394 14.7936 27.2126 14.7554C27.2857 14.7173 27.3658 14.694 27.448 14.687C27.5302 14.6799 27.613 14.6892 27.6916 14.7143C27.7702 14.7394 27.8431 14.7798 27.906 14.8332L43.5406 27.8914C43.6393 27.9737 43.7103 28.0844 43.7438 28.2084C43.7773 28.3325 43.7718 28.4638 43.728 28.5846C43.6842 28.7055 43.6042 28.8098 43.499 28.8836C43.3938 28.9573 43.2684 28.9968 43.1399 28.9968Z" fill="black"/>
</svg>
