<svg width="115" height="61" viewBox="0 0 115 61" fill="none" xmlns="http://www.w3.org/2000/svg">
<path d="M4.284 26.141C3.036 27.773 2.412 29.537 2.412 31.433C2.412 33.689 3.36 35.441 5.256 36.689C6.36 37.433 7.608 37.805 9 37.805C10.416 37.805 11.64 37.529 12.672 36.977C14.616 35.969 15.708 34.277 15.948 31.901C15.972 31.733 15.984 31.565 15.984 31.397C15.984 30.509 15.732 29.549 15.228 28.517C14.748 27.485 13.956 26.537 12.852 25.673L6.372 20.561C4.956 19.457 4.248 18.029 4.248 16.277C4.248 14.525 4.812 13.049 5.94 11.849C7.068 10.625 8.592 10.013 10.512 10.013C11.472 10.013 12.516 10.133 13.644 10.373H15.084L15.156 14.801H14.796C14.772 13.649 14.352 12.749 13.536 12.101C12.744 11.429 11.736 11.093 10.512 11.093C9.312 11.093 8.304 11.501 7.488 12.317C6.672 13.109 6.264 14.141 6.264 15.413C6.264 16.661 6.792 17.705 7.848 18.545L14.508 23.801C17.148 25.889 18.468 28.409 18.468 31.361C18.468 33.569 17.592 35.465 15.84 37.049C14.328 38.417 12.312 39.101 9.792 39.101C8.256 39.101 6.888 38.813 5.688 38.237C3.432 37.181 2.076 35.381 1.62 32.837C1.548 32.453 1.512 31.973 1.512 31.397C1.512 30.797 1.68 29.993 2.016 28.985C2.352 27.953 3 26.921 3.96 25.889L4.284 26.141ZM29.7298 18.905C29.6338 18.593 29.5858 18.329 29.5858 18.113C29.5858 17.873 29.5978 17.609 29.6218 17.321C29.6458 17.033 29.6938 16.637 29.7658 16.133C29.8618 15.629 30.0298 15.137 30.2698 14.657C30.5098 14.153 30.7858 13.673 31.0978 13.217C31.4098 12.761 31.8058 12.341 32.2858 11.957C32.7898 11.573 33.3418 11.237 33.9418 10.949C35.2138 10.325 36.7618 10.013 38.5858 10.013C42.2578 10.013 45.2458 11.237 47.5498 13.685C49.8778 16.109 51.0418 19.217 51.0418 23.009C51.0418 26.801 49.6738 29.957 46.9378 32.477C44.2018 34.973 40.7338 36.221 36.5338 36.221C32.3338 36.221 28.8418 34.973 26.0578 32.477C23.2978 29.981 21.9178 26.741 21.9178 22.757C21.9178 20.189 22.5178 17.909 23.7178 15.917C24.9178 13.925 26.6338 12.365 28.8658 11.237L29.0818 11.561C27.5218 12.593 26.3938 14.081 25.6978 16.025C25.0258 17.969 24.6898 20.033 24.6898 22.217C24.6898 26.273 25.7938 29.441 28.0018 31.721C30.2098 34.001 33.0418 35.141 36.4978 35.141C39.9538 35.141 42.7738 34.001 44.9578 31.721C47.1658 29.417 48.2698 26.393 48.2698 22.649C48.2698 19.409 47.3938 16.673 45.6418 14.441C43.9138 12.209 41.4658 11.093 38.2978 11.093C36.8818 11.093 35.5978 11.345 34.4458 11.849C32.3578 12.737 30.9778 14.201 30.3058 16.241C30.1138 16.841 30.0178 17.357 30.0178 17.789C30.0178 18.221 30.0418 18.569 30.0898 18.833L29.7298 18.905ZM85.1234 4.32504C85.3154 4.32504 85.5194 4.32504 85.7354 4.32504V4.68504C83.0954 4.68504 81.0074 5.56104 79.4714 7.31304C77.9354 9.04104 77.1674 11.549 77.1674 14.837V26.825C77.1674 29.633 76.2794 31.901 74.5034 33.629C72.7274 35.357 70.3634 36.221 67.4114 36.221C64.4594 36.221 62.0594 35.369 60.2114 33.665C58.3874 31.937 57.4754 29.669 57.4754 26.861V12.641C57.4754 11.945 57.1634 11.429 56.5394 11.093C56.2514 10.949 55.9274 10.877 55.5674 10.877H54.9914V10.517H62.2994V10.877H61.7234C61.1954 10.877 60.7514 11.045 60.3914 11.381C60.0314 11.693 59.8394 12.101 59.8154 12.605V26.357C59.8154 28.973 60.5114 31.085 61.9034 32.693C63.3194 34.277 65.1674 35.069 67.4474 35.069C69.8714 35.069 71.8154 34.313 73.2794 32.801C74.7434 31.289 75.4754 29.297 75.4754 26.825V14.873C75.4754 11.345 76.3634 8.70504 78.1394 6.95304C79.9394 5.20104 82.2674 4.32504 85.1234 4.32504ZM89.9297 36.401C95.0417 38.177 98.8697 39.377 101.414 40.001C103.982 40.649 106.178 40.973 108.002 40.973C109.85 40.973 111.878 40.553 114.086 39.713L114.266 40.001C111.338 42.017 108.386 43.025 105.41 43.025C102.362 43.025 98.8937 42.077 95.0057 40.181C92.0057 38.693 90.1457 37.793 89.4257 37.481C86.8577 36.329 84.7457 35.741 83.0897 35.717V35.357H83.5577C84.1817 35.357 84.7097 35.141 85.1417 34.709C85.5977 34.277 85.8377 33.737 85.8617 33.089V13.145C85.8377 12.521 85.5977 11.993 85.1417 11.561C84.7097 11.105 84.1817 10.877 83.5577 10.877H83.0897V10.517H90.9737V10.877H90.5057C89.8817 10.877 89.3417 11.105 88.8857 11.561C88.4297 11.993 88.2017 12.521 88.2017 13.145V33.917C88.2017 34.349 88.2257 34.685 88.2737 34.925C88.3217 35.141 88.4777 35.393 88.7417 35.681C89.0057 35.969 89.4017 36.209 89.9297 36.401Z" fill="url(#paint0_radial)"/>
<path d="M26.7627 51.3228C26.7627 51.8677 26.6514 52.3452 26.4287 52.7554C26.2061 53.1655 25.8955 53.5083 25.4971 53.7837C25.0986 54.0532 24.6182 54.2554 24.0557 54.3901C23.499 54.5249 22.8838 54.5923 22.21 54.5923C21.9053 54.5923 21.6006 54.5806 21.2959 54.5571C20.9971 54.5337 20.707 54.5044 20.4258 54.4692C20.1504 54.4341 19.8896 54.3931 19.6436 54.3462C19.3975 54.2993 19.1748 54.2495 18.9756 54.1968V52.6851C19.415 52.8491 19.9072 52.978 20.4521 53.0718C21.0029 53.1655 21.627 53.2124 22.3242 53.2124C22.8281 53.2124 23.2559 53.1743 23.6074 53.0981C23.9648 53.0161 24.2549 52.8989 24.4775 52.7466C24.7061 52.5884 24.8701 52.3979 24.9697 52.1753C25.0752 51.9526 25.1279 51.6978 25.1279 51.4106C25.1279 51.1001 25.04 50.8364 24.8643 50.6196C24.6943 50.397 24.4688 50.2007 24.1875 50.0308C23.9062 49.855 23.584 49.6968 23.2207 49.5562C22.8633 49.4097 22.4971 49.2603 22.1221 49.1079C21.7471 48.9556 21.3779 48.7915 21.0146 48.6157C20.6572 48.4341 20.3379 48.2231 20.0566 47.9829C19.7754 47.7368 19.5469 47.4497 19.3711 47.1216C19.2012 46.7935 19.1162 46.4038 19.1162 45.9526C19.1162 45.5601 19.1982 45.1733 19.3623 44.7925C19.5264 44.4116 19.7812 44.0747 20.127 43.7817C20.4727 43.4829 20.915 43.2427 21.4541 43.061C21.999 42.8794 22.6465 42.7886 23.3965 42.7886C23.5898 42.7886 23.7979 42.7974 24.0205 42.8149C24.249 42.8325 24.4775 42.8589 24.7061 42.894C24.9404 42.9233 25.1689 42.9585 25.3916 42.9995C25.6201 43.0405 25.8311 43.0845 26.0244 43.1313V44.5376C25.5732 44.4087 25.1221 44.312 24.6709 44.2476C24.2197 44.1772 23.7832 44.1421 23.3613 44.1421C22.4648 44.1421 21.8057 44.2915 21.3838 44.5903C20.9619 44.8892 20.751 45.2905 20.751 45.7944C20.751 46.105 20.8359 46.3716 21.0059 46.5942C21.1816 46.8169 21.4102 47.0161 21.6914 47.1919C21.9727 47.3677 22.292 47.5288 22.6494 47.6753C23.0127 47.8159 23.3818 47.9624 23.7568 48.1147C24.1318 48.2671 24.498 48.4341 24.8555 48.6157C25.2188 48.7974 25.541 49.0142 25.8223 49.2661C26.1035 49.5122 26.3291 49.8022 26.499 50.1362C26.6748 50.4702 26.7627 50.8657 26.7627 51.3228ZM32.0537 44.2651H29.4082V42.9468H36.2812V44.2651H33.6357V53.0981H36.2812V54.4341H29.4082V53.0981H32.0537V44.2651ZM46.4502 54.4341H39.8408V42.9468H41.4316V53.0981H46.4502V54.4341ZM57.5508 42.9468L53.6484 54.4341H51.5391L47.7246 42.9468H49.4912L51.9697 50.6899L52.6729 52.9575L53.3936 50.6899L55.8809 42.9468H57.5508ZM65.8828 54.4341H59.3525V42.9468H65.8828V44.2651H60.917V47.8247H65.6895V49.1431H60.917V53.0981H65.8828V54.4341ZM76.7197 54.4341H74.9531L73.2393 50.7603C73.1104 50.479 72.9785 50.2476 72.8438 50.0659C72.709 49.8784 72.5625 49.7319 72.4043 49.6265C72.252 49.5151 72.082 49.436 71.8945 49.3892C71.7129 49.3423 71.5078 49.3188 71.2793 49.3188H70.541V54.4341H68.9766V42.9468H72.0527C72.7207 42.9468 73.2949 43.02 73.7754 43.1665C74.2559 43.313 74.6484 43.5181 74.9531 43.7817C75.2637 44.0454 75.4893 44.3647 75.6299 44.7397C75.7764 45.1089 75.8496 45.519 75.8496 45.9702C75.8496 46.3276 75.7969 46.6675 75.6914 46.9897C75.5859 47.3062 75.4277 47.5962 75.2168 47.8599C75.0117 48.1177 74.7539 48.3433 74.4434 48.5366C74.1387 48.7241 73.7871 48.8647 73.3887 48.9585C73.7109 49.0698 73.9834 49.2661 74.2061 49.5474C74.4346 49.8228 74.666 50.1919 74.9004 50.6548L76.7197 54.4341ZM74.2148 46.1021C74.2148 45.4868 74.0215 45.0269 73.6348 44.7222C73.2539 44.4175 72.7148 44.2651 72.0176 44.2651H70.541V48.062H71.8066C72.1758 48.062 72.5068 48.021 72.7998 47.939C73.0986 47.8511 73.3506 47.7251 73.5557 47.561C73.7666 47.3911 73.9277 47.186 74.0391 46.9458C74.1562 46.6997 74.2148 46.4185 74.2148 46.1021Z" fill="black"/>
<defs>
<radialGradient id="paint0_radial" cx="0" cy="0" r="1" gradientUnits="userSpaceOnUse" gradientTransform="translate(48 25.6793) rotate(90) scale(24.9623 48)">
<stop stop-opacity="0"/>
<stop offset="1"/>
</radialGradient>
</defs>
</svg>
