<svg width="24" height="25" viewBox="0 0 24 25" fill="none" xmlns="http://www.w3.org/2000/svg">
<path d="M10.2 3.66797C11.4544 3.66775 12.6829 4.03176 13.7415 4.71735C14.8001 5.40293 15.6451 6.38171 16.1774 7.539C16.7097 8.6963 16.9073 9.98418 16.747 11.2518C16.5867 12.5194 16.0752 13.7142 15.2724 14.6962L20.2248 19.7408C20.3311 19.8486 20.3939 19.9931 20.4008 20.1458C20.4077 20.2984 20.3583 20.4482 20.2622 20.5656C20.1662 20.683 20.0304 20.7594 19.8818 20.7799C19.7331 20.8003 19.5824 20.7633 19.4592 20.6761L19.3752 20.6064L14.424 15.5606C13.6094 16.2515 12.6435 16.7324 11.608 16.9625C10.5725 17.1927 9.49777 17.1654 8.4748 16.8829C7.45183 16.6004 6.51068 16.071 5.73095 15.3396C4.95122 14.6082 4.35585 13.6962 3.99519 12.6807C3.63453 11.6653 3.5192 10.5763 3.65894 9.50587C3.79868 8.43543 4.18939 7.41501 4.79803 6.53094C5.40666 5.64687 6.21531 4.92515 7.15558 4.42681C8.09586 3.92848 9.14009 3.66819 10.2 3.66797ZM10.2 4.89061C8.7678 4.89061 7.39429 5.47027 6.38159 6.50208C5.36889 7.53388 4.79997 8.93331 4.79997 10.3925C4.79997 11.8517 5.36889 13.2511 6.38159 14.2829C7.39429 15.3147 8.7678 15.8944 10.2 15.8944C11.6321 15.8944 13.0056 15.3147 14.0183 14.2829C15.031 13.2511 15.6 11.8517 15.6 10.3925C15.6 8.93331 15.031 7.53388 14.0183 6.50208C13.0056 5.47027 11.6321 4.89061 10.2 4.89061Z" fill="black"/>
</svg>
